<?xml version="1.0" encoding="utf-8"?>
<!-- Generator: Adobe Illustrator 27.0.0, SVG Export Plug-In . SVG Version: 6.00 Build 0)  -->
<svg version="1.1" id="Layer_1" xmlns="http://www.w3.org/2000/svg" xmlns:xlink="http://www.w3.org/1999/xlink" x="0px" y="0px"
	 viewBox="0 0 52 45" style="enable-background:new 0 0 52 45;" xml:space="preserve">
<style type="text/css">
	.st0{fill:#705782;}
</style>
<g>
	<path class="st0" d="M46.6,15.1h-0.4l-3.8-6.2c-0.7-1.2-2-1.9-3.4-1.9H37V4.5C37,2,35,0,32.5,0h-27C2.9,0,0.9,2,0.9,4.5v29.4
		c0,2.5,2,4.5,4.5,4.5h3.4c0.3,3.5,3.1,6.2,6.6,6.2c3.5,0,6.4-2.7,6.6-6.2h7.8c0.3,3.5,3.1,6.2,6.6,6.2c3.5,0,6.4-2.7,6.6-6.2h3.4
		c2.5,0,4.5-2,4.5-4.5V19.6C51.1,17.1,49.1,15.1,46.6,15.1L46.6,15.1z M38.9,10.4c0.2,0,0.5,0.1,0.6,0.3l2.7,4.4H37v-4.7H38.9z
		 M4.2,8.3h29.4v14.2H4.2V8.3z M5.4,3.3h27c0.7,0,1.2,0.5,1.2,1.2v1.2H4.2V4.5C4.2,3.9,4.8,3.3,5.4,3.3z M4.2,25h29.4v2.5H4.2V25z
		 M15.5,41.3c-1.8,0-3.3-1.5-3.3-3.3c0-1.8,1.5-3.3,3.3-3.3c1.8,0,3.3,1.5,3.3,3.3C18.8,39.8,17.3,41.3,15.5,41.3z M36.5,41.3
		c-1.8,0-3.3-1.5-3.3-3.3c0-1.8,1.5-3.3,3.3-3.3c1.8,0,3.3,1.5,3.3,3.3C39.9,39.8,38.4,41.3,36.5,41.3z M47.8,33.9
		c0,0.7-0.5,1.2-1.2,1.2h-4c-1.1-2.3-3.4-3.9-6-3.9c-2.7,0-5,1.6-6,3.9h-9c-1.1-2.3-3.4-3.9-6-3.9s-5,1.6-6,3.9h-4
		c-0.7,0-1.2-0.5-1.2-1.2v-3.1h43.5V33.9z M37,27.5v-9h9.5c0.7,0,1.2,0.5,1.2,1.2v7.8H37z"/>
</g>
</svg>
