<?xml version="1.0" encoding="utf-8"?>
<!-- Generator: Adobe Illustrator 27.0.0, SVG Export Plug-In . SVG Version: 6.00 Build 0)  -->
<svg version="1.1" id="Layer_1" xmlns="http://www.w3.org/2000/svg" xmlns:xlink="http://www.w3.org/1999/xlink" x="0px" y="0px"
	 viewBox="0 0 74 44" style="enable-background:new 0 0 74 44;" xml:space="preserve">
<style type="text/css">
	.st0{fill:#705782;}
</style>
<path class="st0" d="M72,40.5c-3,0-5.5-2.4-5.5-5.4V21h-3v3.5h-2c0-0.6-0.1-1.3-0.2-1.9c-0.1-0.3-0.1-0.6-0.2-0.8L55.8,5
	c-0.8-2.7-3.3-4.5-6.1-4.5h-4.4c-3.2,0-5.9,2.6-5.9,5.9v0.1H8.7c-1,0-1.9,0.4-2.5,1.2c-0.6,0.8-0.8,1.8-0.6,2.7l2.7,12.1H5.9
	c-3,0-5.4,2.4-5.4,5.3v4.4c0,2.5,1.8,4.6,4.2,5.2c0.8,3.5,4,6.1,7.8,6.1c0.1,0,0.1,0,0.2,0c0.1,0,0.1,0,0.2,0h19.3
	c0.1,0,0.1,0,0.2,0c0.1,0,0.1,0,0.2,0c3.7,0,6.8-2.6,7.7-6h2.3h0.3c0.9,3.4,4.3,6,8.2,6c4.1,0,7.4-2.7,8.3-6.3
	c1.1-0.5,2-1.5,2.2-2.7h2.1v0.6c0,4.6,3.8,8.4,8.5,8.4h2v-3H72z M57.8,21.5h-7.5c-0.4,0-0.8-0.3-0.8-0.7v-9.6c0-0.4,0.4-0.7,0.8-0.7
	h4.1L57.8,21.5z M8.5,9.8c0-0.1,0-0.2,0-0.2c0-0.1,0.1-0.1,0.2-0.1h30.8v13H11.3L8.5,9.8z M3.5,32.2v-4.4c0-1.3,1.1-2.3,2.4-2.3h3
	h30.6v6.1c-1.4-2.5-4-4.1-7-4.1c-0.1,0-0.1,0-0.2,0c-0.1,0-0.1,0-0.2,0H12.8c-0.1,0-0.1,0-0.2,0c-0.1,0-0.1,0-0.2,0
	c-3.9,0-7.2,2.9-7.9,6.6C4,33.7,3.5,33,3.5,32.2z M32.3,40.5c-2.7-0.1-4.8-2.3-4.8-5s2.2-4.9,4.8-5c2.9,0.1,5.2,2.3,5.2,5
	S35.2,40.4,32.3,40.5z M7.5,35.5c0-2.7,2.3-4.9,5.2-5c2.7,0.1,4.8,2.3,4.8,5s-2.2,4.9-4.8,5C9.8,40.4,7.5,38.2,7.5,35.5z M24.6,34.5
	h-4.1c-0.2-1.5-0.8-2.9-1.7-4h7.5C25.4,31.6,24.8,33,24.6,34.5z M20.2,37.5h4.5c0.3,1.1,0.8,2.1,1.5,3h-7.5
	C19.4,39.6,19.9,38.6,20.2,37.5z M51,40.5c-3,0-5.5-2.2-5.5-5s2.5-5,5.5-5s5.5,2.2,5.5,5S54,40.5,51,40.5z M51,27.5
	c-4.3,0-7.9,3.1-8.4,7h-0.1v-9v-3v-16V6.4c0-1.6,1.3-2.9,2.9-2.9h4.4c1.5,0,2.8,1,3.2,2.4l0.5,1.6h-3.1c-2.1,0-3.8,1.7-3.8,3.7v9.6
	c0,2,1.7,3.7,3.8,3.7h8.2c0,0.1,0,0.3,0,0.4v6.8C57.1,29.2,54.2,27.5,51,27.5z M61.5,31.5v-4h2v4H61.5z"/>
<path class="st0" d="M17,10.5c-0.8,0-1.5,0.7-1.5,1.5v8c0,0.8,0.7,1.5,1.5,1.5s1.5-0.7,1.5-1.5v-8C18.5,11.2,17.8,10.5,17,10.5z"/>
<path class="st0" d="M25,10.5c-0.8,0-1.5,0.7-1.5,1.5v8c0,0.8,0.7,1.5,1.5,1.5s1.5-0.7,1.5-1.5v-8C26.5,11.2,25.8,10.5,25,10.5z"/>
<path class="st0" d="M32,10.5c-0.8,0-1.5,0.7-1.5,1.5v8c0,0.8,0.7,1.5,1.5,1.5s1.5-0.7,1.5-1.5v-8C33.5,11.2,32.8,10.5,32,10.5z"/>
</svg>
