<?xml version="1.0" encoding="utf-8"?>
<!-- Generator: Adobe Illustrator 27.0.0, SVG Export Plug-In . SVG Version: 6.00 Build 0)  -->
<svg version="1.1" id="Layer_1" xmlns="http://www.w3.org/2000/svg" xmlns:xlink="http://www.w3.org/1999/xlink" x="0px" y="0px"
	 viewBox="0 0 68 43" style="enable-background:new 0 0 68 43;" xml:space="preserve">
<style type="text/css">
	.st0{fill:#705782;}
</style>
<g>
	<path class="st0" d="M65.3,28.8v-6.3c0-1.3-0.3-2.6-0.8-3.8l-4.3-9.4c-1-2.2-3.3-3.7-5.7-3.7h-9.1l-3-5C42.1,0.2,41.6,0,41.2,0
		h-9.9c-0.5,0-0.9,0.2-1.1,0.6l-2.9,5L2.1,5.5h0c-0.3,0-0.7,0.1-0.9,0.4C0.9,6.1,0.8,6.5,0.8,6.8v13.4c0,0.2,0,0.3,0.1,0.5l3.3,7.9
		H3.6c-1.6,0-2.9,1.3-2.9,2.9v2.8c0,1.6,1.3,2.9,2.9,2.9h3.6c0.6,3.3,3.5,5.9,7.1,5.9s6.4-2.5,7.1-5.9h25c0.6,3.3,3.5,5.9,7.1,5.9
		c3.5,0,6.4-2.5,7.1-5.9h3.9c1.6,0,2.9-1.3,2.9-2.9v-2.8C67.2,30.2,66.4,29.2,65.3,28.8L65.3,28.8z M7.2,34.5H3.6
		c-0.1,0-0.3-0.1-0.3-0.3v-2.8c0-0.1,0.1-0.3,0.3-0.3h5.1C8,32.2,7.4,33.3,7.2,34.5L7.2,34.5z M14.3,40.4c-2.5,0-4.6-2.1-4.6-4.6
		c0-2.5,2.1-4.6,4.6-4.6s4.6,2.1,4.6,4.6C18.8,38.4,16.8,40.4,14.3,40.4z M11.9,28.6V14.8l2.8,0v13.8L11.9,28.6L11.9,28.6z
		 M17.3,28.6V14.8c0-1.4-1.2-2.6-2.6-2.6h-2.8c-1.4,0-2.6,1.2-2.6,2.6v13.8H6.9L3.4,20V8.1l24.6,0.1h0c0.5,0,0.9-0.2,1.1-0.6l3-5
		h8.4l1.8,3h-4c-1.9,0-3.4,1.5-3.4,3.4v19.7h-4.5V14.8c0-1.4-1.2-2.6-2.6-2.6h-2.9c-1.4,0-2.6,1.2-2.6,2.6v13.8L17.3,28.6L17.3,28.6
		z M40.3,8.2c-0.1,0.2-0.1,0.5-0.1,0.8v19.7h-2.7V9c0-0.4,0.3-0.8,0.8-0.8H40.3z M27.8,14.8v13.8h-2.9V14.8L27.8,14.8L27.8,14.8z
		 M46.3,34.5h-25c-0.2-1.2-0.8-2.3-1.5-3.3h28C47,32.2,46.5,33.3,46.3,34.5z M53.4,40.4c-2.5,0-4.6-2.1-4.6-4.6
		c0-2.5,2.1-4.6,4.6-4.6c2.5,0,4.6,2.1,4.6,4.6C57.9,38.4,55.9,40.4,53.4,40.4z M56.7,27.1c0,0.5,0.1,1.1,0.3,1.5H42.8V9
		c0-0.4,0.3-0.8,0.8-0.8h10.8c1.4,0,2.7,0.8,3.3,2.1l4.3,9.4c0.4,0.9,0.6,1.8,0.6,2.7V23h-1.8C58.6,23,56.7,24.8,56.7,27.1
		L56.7,27.1z M62.7,25.5v3.1h-1.8c-0.9,0-1.5-0.7-1.5-1.5c0-0.9,0.7-1.5,1.5-1.5H62.7L62.7,25.5z M64.6,34.3c0,0.1-0.1,0.3-0.3,0.3
		h-3.9c-0.2-1.2-0.8-2.3-1.5-3.3H64c0,0,0,0,0,0h0.4c0.1,0,0.3,0.1,0.3,0.3V34.3L64.6,34.3z"/>
	<path class="st0" d="M55.7,12.2c-0.4-0.9-1.3-1.5-2.3-1.5h-5.1c-1.4,0-2.6,1.1-2.6,2.6v4.6c0,1.4,1.1,2.6,2.6,2.6h7.3
		c0.9,0,1.7-0.4,2.2-1.2c0.5-0.7,0.5-1.7,0.2-2.5L55.7,12.2L55.7,12.2z M48.3,17.8v-4.5h5.1l2.1,4.5H48.3z"/>
	<path class="st0" d="M49.3,22.9h-2.1c-0.7,0-1.3,0.6-1.3,1.3s0.6,1.3,1.3,1.3h2.1c0.7,0,1.3-0.6,1.3-1.3S50,22.9,49.3,22.9z"/>
</g>
</svg>
