<?xml version="1.0" encoding="utf-8"?>
<!-- Generator: Adobe Illustrator 27.0.0, SVG Export Plug-In . SVG Version: 6.00 Build 0)  -->
<svg version="1.1" id="Layer_1" xmlns="http://www.w3.org/2000/svg" xmlns:xlink="http://www.w3.org/1999/xlink" x="0px" y="0px"
	 viewBox="0 0 40 39" style="enable-background:new 0 0 40 39;" xml:space="preserve">
<style type="text/css">
	.st0{fill:#705782;}
</style>
<g>
	<path class="st0" d="M11.2,30.9c0,0.1,0.1,0.3,0.1,0.4v6.2c0,0.8-0.7,1.5-1.5,1.5c-0.8,0-1.5-0.7-1.5-1.5v-6l-1.8-6.3
		c-0.1-0.2-0.1-0.5,0-0.7L7,21.7c0.2-0.8,1-1.3,1.8-1.2c0.8,0.2,1.3,1,1.2,1.8l-0.5,2.4L11.2,30.9L11.2,30.9z M3.6,4.6
		c0-2.5,2-4.6,4.6-4.6s4.6,2.1,4.6,4.6c0,2.5-2,4.6-4.6,4.6S3.6,7.1,3.6,4.6z M6.7,4.6c0,0.8,0.7,1.5,1.5,1.5s1.5-0.7,1.5-1.5
		C9.7,3.7,9,3,8.2,3S6.7,3.7,6.7,4.6z M39.4,37.1c0.2,0.8-0.3,1.6-1.1,1.9c-0.1,0-0.3,0-0.4,0c-0.7,0-1.3-0.5-1.5-1.1L35,32
		c-0.1-0.2-0.1-0.5,0-0.8l1.3-5c0.3-1.3,0.3-2.6,0-3.9L34.7,15c0,0,0,0,0,0c-0.1-0.7-0.8-1.2-1.5-1.2h-0.1c-0.7,0-1.3,0.4-1.6,1
		l-5.1,9.9c0,0,0,0,0,0c-0.6,1.3-1.9,2.2-3.5,2.2h-5.8c-1.5,0-2.9-0.9-3.5-2.2c0,0,0,0,0,0l-5.2-9.9c-0.3-0.6-0.9-0.9-1.6-0.9
		c-0.7,0-1.4,0.5-1.5,1.2c0,0,0,0,0,0l-1.6,7.3c-0.2,1.3-0.2,2.6,0,3.9l1.3,5c0.1,0.2,0.1,0.5,0,0.8l-1.5,5.9C3.3,38.5,2.7,39,2,39
		c-0.1,0-0.3,0-0.4,0c-0.8-0.2-1.3-1-1.1-1.9L2,31.6l-1.2-4.7c0,0,0,0,0-0.1c-0.4-1.7-0.4-3.4,0-5.1c0,0,0,0,0,0l1.6-7.3
		c0.4-2.1,2.3-3.7,4.5-3.7c1.8,0,3.4,1,4.3,2.6l2.2,4.2v-0.2c0-2.1,1.7-3.8,3.8-3.8h5.8c2.1,0,3.8,1.7,3.8,3.8v0.1l2.1-4
		c0.8-1.6,2.5-2.6,4.3-2.6h0.1c2.2,0,4.1,1.6,4.5,3.7l1.6,7.3c0,0,0,0,0,0c0.3,1.7,0.3,3.4,0,5.1c0,0,0,0,0,0.1L38,31.6L39.4,37.1
		L39.4,37.1z M23.7,23v-5.8c0-0.4-0.3-0.8-0.8-0.8h-5.8c-0.4,0-0.8,0.3-0.8,0.8V23c0,0.4,0.3,0.8,0.8,0.8h5.8
		C23.3,23.8,23.7,23.4,23.7,23z M33,21.7c-0.2-0.8-1-1.4-1.8-1.2c-0.8,0.2-1.4,1-1.2,1.8l0.5,2.5l-1.7,6.1c0,0.1-0.1,0.3-0.1,0.4
		v6.2c0,0.8,0.7,1.5,1.5,1.5s1.5-0.7,1.5-1.5v-6l1.8-6.3c0.1-0.2,0.1-0.5,0-0.7L33,21.7L33,21.7z M27.4,4.6c0-2.5,2-4.6,4.6-4.6
		s4.6,2.1,4.6,4.6c0,2.5-2,4.6-4.6,4.6S27.4,7.1,27.4,4.6z M30.4,4.6c0,0.8,0.7,1.5,1.5,1.5c0.8,0,1.5-0.7,1.5-1.5
		C33.5,3.7,32.8,3,32,3C31.1,3,30.4,3.7,30.4,4.6z"/>
</g>
</svg>
