<?xml version="1.0" encoding="utf-8"?>
<!-- Generator: Adobe Illustrator 27.0.0, SVG Export Plug-In . SVG Version: 6.00 Build 0)  -->
<svg version="1.1" id="Layer_1" xmlns="http://www.w3.org/2000/svg" xmlns:xlink="http://www.w3.org/1999/xlink" x="0px" y="0px"
	 viewBox="0 0 64 45" style="enable-background:new 0 0 64 45;" xml:space="preserve">
<style type="text/css">
	.st0{fill:#705782;}
</style>
<path class="st0" d="M54.4,25.9c-1.6,0-3.1,0.4-4.4,1.1l-2.1-2.8c2-1.5,4.5-2.3,7.5-2.6c2.2-0.2,3.9-2,3.9-4.1v-1
	c0-8.8-7.2-16-16.1-16h-2.7C39.7,0.5,39,1.1,39,2s0.7,1.5,1.5,1.5h2.7c1,0,1.9,0.1,2.9,0.3c0,0.1,0,0.2,0,0.3v5.2
	c-4.4,0.8-8.7,2.8-12.7,5.8l-14-7.7c-0.7-0.4-1.4-0.6-2.2-0.6H5.2c-2.6,0-4.7,2.1-4.7,4.7V14c0,2.7,2.2,4.9,4.9,4.9h5.7
	c7.4,0,13.5,6,13.5,13.4v2.5h-1.9c0.1-0.5,0.1-1.1,0.1-1.6c0-6-4.9-10.8-10.9-10.8S1,27.3,1,33.2c0,6,4.9,10.8,10.9,10.8
	c4.3,0,8.1-2.6,9.8-6.2H26c0,0,0,0,0,0s0,0,0,0h10.1c2.7,0,5.1-1.8,5.9-4.4c0.9-3,2.1-5.4,3.7-7.2l1.9,2.6c-1.5,1.6-2.4,3.8-2.4,6.1
	c0,5,4.1,9.1,9.1,9.1c5,0,9.1-4.1,9.1-9.1S59.4,25.9,54.4,25.9z M11.9,41.1c-4.3,0-7.9-3.5-7.9-7.8c0-4.3,3.5-7.8,7.9-7.8
	s7.9,3.5,7.9,7.8c0,0.5-0.1,1.1-0.2,1.6h-6.1c-1,0-1.9-0.8-1.9-1.9v-3.1c0-0.8-0.7-1.5-1.5-1.5s-1.5,0.7-1.5,1.5V33
	c0,2.7,2.2,4.9,4.9,4.9h4.7C16.8,39.8,14.5,41.1,11.9,41.1z M11.1,15.9H5.4c-1,0-1.9-0.8-1.9-1.9v-2.5c0-0.9,0.8-1.7,1.7-1.7h11.9
	c0.3,0,0.5,0.1,0.8,0.2l13,7.1c-2.1,1.8-4.1,4-5.9,6.4C22,18.9,16.9,15.9,11.1,15.9z M39.2,32.6c-0.4,1.3-1.6,2.2-3,2.2h-8.6v-2.5
	c0-2.1-0.4-4-1.1-5.8c3.7-5.1,11-13.1,21.3-14.5l1.3-0.2v-7c4.3,2.1,7.3,6.6,7.3,11.6v1c0,0.6-0.5,1.1-1.1,1.2
	c-4.1,0.3-7.5,1.7-10.2,4.1c0,0,0,0-0.1,0c-0.1,0.1-0.2,0.2-0.3,0.3C42.3,25.3,40.4,28.5,39.2,32.6z M54.4,41.1
	c-3.4,0-6.1-2.7-6.1-6.1c0-1.4,0.5-2.6,1.2-3.6l4.4,5.9c0.3,0.4,0.7,0.6,1.2,0.6c0.3,0,0.6-0.1,0.9-0.3c0.7-0.5,0.8-1.4,0.3-2.1
	l-4.4-6c0.8-0.4,1.7-0.6,2.6-0.6c3.4,0,6.1,2.7,6.1,6.1S57.8,41.1,54.4,41.1z"/>
</svg>
