<?xml version="1.0" encoding="utf-8"?>
<!-- Generator: Adobe Illustrator 27.0.0, SVG Export Plug-In . SVG Version: 6.00 Build 0)  -->
<svg version="1.1" id="Layer_1" xmlns="http://www.w3.org/2000/svg" xmlns:xlink="http://www.w3.org/1999/xlink" x="0px" y="0px"
	 viewBox="0 0 36 35" style="enable-background:new 0 0 36 35;" xml:space="preserve">
<style type="text/css">
	.st0{fill:#705782;}
</style>
<g>
	<path class="st0" d="M9,33.2c0,0.7-0.6,1.3-1.3,1.3H7.5c-3,0-5.4-2.4-5.4-5.4v-15c0-0.7,0.6-1.3,1.3-1.3s1.3,0.6,1.3,1.3v15
		c0,1.5,1.2,2.7,2.7,2.7h0.1C8.4,31.8,9,32.4,9,33.2z M35.2,4v4c0,0.7-0.6,1.3-1.3,1.3v4c0,0.7-0.6,1.3-1.3,1.3
		c-0.7,0-1.3-0.6-1.3-1.3v-4H2.1c-0.7,0-1.3-0.6-1.3-1.3V4c0-2.2,1.8-4,4-4h26.4C33.4,0,35.2,1.8,35.2,4z M3.4,6.7h29.1V4
		c0-0.7-0.6-1.3-1.3-1.3H4.8C4,2.7,3.4,3.3,3.4,4V6.7z M21,14.8c0.7,0,1.3-0.6,1.3-1.3c0-0.7-0.6-1.3-1.3-1.3h-6.1
		c-0.7,0-1.3,0.6-1.3,1.3c0,0.7,0.6,1.3,1.3,1.3H21z M35.2,22.7v6.4c0,3-2.4,5.4-5.4,5.4H16.4c-3,0-5.4-2.4-5.4-5.4v-6.4
		c0-3,2.4-5.4,5.4-5.4h13.5C32.8,17.3,35.2,19.7,35.2,22.7z M32.6,22.7c0-1.5-1.2-2.7-2.7-2.7H16.4c-1.5,0-2.7,1.2-2.7,2.7h14.8
		c0.7,0,1.3,0.6,1.3,1.3c0,0.7-0.6,1.3-1.3,1.3H13.7v3.7c0,1.5,1.2,2.7,2.7,2.7h13.5c1.5,0,2.7-1.2,2.7-2.7V22.7z"/>
</g>
</svg>
