<?xml version="1.0" encoding="utf-8"?>
<!-- Generator: Adobe Illustrator 27.0.0, SVG Export Plug-In . SVG Version: 6.00 Build 0)  -->
<svg version="1.1" id="Layer_1" xmlns="http://www.w3.org/2000/svg" xmlns:xlink="http://www.w3.org/1999/xlink" x="0px" y="0px"
	 viewBox="0 0 40 57" style="enable-background:new 0 0 40 57;" xml:space="preserve">
<style type="text/css">
	.st0{fill:#FFFFFF;}
</style>
<g>
	<path class="st0" d="M38.8,17C38.1,8.4,31.6,1.5,23.2,0.2C22.3,0.1,21.4,0,20.5,0C10.4,0,2.1,8.3,2.1,18.6c0,4,1.3,7.7,3.4,10.8
		c0,0,0,0,0,0c0.7,1,1.5,2,2.4,2.8c2.4-0.6,4.6-1.4,6.5-2.2c3.4-1.5,5.8-3.3,5.8-5.4c0-1-0.6-2.1-2-3.2c1.3,3.2-2.1,5.1-6.8,6.5
		C8.7,25.4,7,21.9,7,18c0-7.4,6.1-13.4,13.6-13.4c2,0,3.9,0.4,5.7,1.2c3.9,1.8,6.7,5.3,7.6,9.5c0.2,0.9,0.3,1.8,0.3,2.7
		c0,0.9-0.1,1.8-0.3,2.7c-1.4-2.5-3.6-4.4-6.3-5.4c-1.3-0.5-2.8-0.8-4.3-0.8c0,0,0,0,0,0s0,0,0,0c-3.2,0-6.1,1.2-8.2,3.2
		c0,0,0,0,0,0c0,0,0,0,0,0c0.7-0.2,1.4-0.3,2.1-0.3c3.3,0,6.2,2.2,7.1,5.2c0,0.3,0.1,0.6,0.1,0.8c0,0.1,0,0.2,0,0.3
		c0,0.1,0,0.2,0,0.3c0,0,0,0.1,0,0.1c0,0.1,0,0.2,0,0.2c0,0.1,0,0.2,0,0.2c0,0.1,0,0.1,0,0.2c-0.1,0.3-0.2,0.6-0.3,0.8
		c0,0.1-0.1,0.1-0.1,0.2c0,0,0,0.1,0,0.1c0,0,0,0.1-0.1,0.1c0,0.1-0.1,0.1-0.1,0.2c0,0.1-0.1,0.2-0.1,0.2c0,0.1-0.1,0.1-0.1,0.2
		c-0.2,0.3-0.3,0.5-0.5,0.8c-0.1,0.1-0.1,0.2-0.2,0.3c-0.2,0.2-0.3,0.4-0.5,0.6c0,0.1-0.1,0.1-0.1,0.2c-0.3,0.3-0.6,0.5-0.9,0.8
		c-0.1,0.1-0.2,0.1-0.3,0.2c-0.1,0.1-0.2,0.1-0.3,0.2c-0.5,0.4-1.1,0.8-1.7,1.1c-0.1,0.1-0.2,0.1-0.3,0.2c-0.1,0-0.1,0.1-0.2,0.1
		c-0.1,0-0.1,0.1-0.2,0.1c-0.1,0-0.1,0.1-0.2,0.1c-0.1,0-0.1,0.1-0.2,0.1c0,0-0.1,0-0.1,0.1c-0.1,0-0.1,0.1-0.2,0.1
		c0,0-0.1,0-0.1,0.1c-0.2,0.1-0.3,0.2-0.5,0.2c-0.2,0.1-0.3,0.2-0.5,0.2c-1,0.5-2,0.9-3.2,1.3c-0.8,0.3-1.6,0.6-2.5,0.9
		c0,0,0,0-0.1,0c-0.3,0.1-0.7,0.2-1,0.3l1,1.3l9.5,12.8l0,0l0,0l9.5-11.9c0.4-0.5,0.8-0.9,1.1-1.4c0.7-0.8,1.5-1.7,2.2-2.6
		c0.4-0.5,0.8-1,1.2-1.5c0,0,0,0,0,0c0.1-0.1,0.1-0.2,0.2-0.3c0.1-0.2,0.2-0.4,0.3-0.6c0,0,0-0.1,0.1-0.1c2.6-3.2,4.1-7.3,4.1-11.7
		C38.9,18.1,38.9,17.5,38.8,17L38.8,17z"/>
	<path class="st0" d="M32,48.8c0,0.1-0.1,0.2-0.1,0.3c2.2,0.6,3.5,1.3,3.5,2.1c0,1.8-6.9,3.2-15.4,3.2S4.6,52.9,4.6,51.1
		c0-0.8,1.5-1.6,4-2.2c0,0,0,0,0,0c0-0.1,0-0.2,0-0.3c-5,0.8-8.3,2-8.3,3.5c0,2.4,8.8,4.3,19.7,4.3c10.9,0,19.7-1.9,19.7-4.3
		C39.7,50.8,36.7,49.6,32,48.8L32,48.8z"/>
	<path class="st0" d="M27.9,48.4c0,0.1-0.1,0.1-0.1,0.2c1.4,0.3,2.2,0.8,2.2,1.3c0,1.1-4.3,2-9.6,2s-9.6-0.9-9.6-2
		c0-0.5,1-1,2.5-1.3c0,0,0,0,0,0c0-0.1,0-0.1,0-0.2C10.1,48.8,8,49.6,8,50.5c0,1.4,5.5,2.6,12.3,2.6s12.3-1.2,12.3-2.6
		C32.7,49.6,30.8,48.9,27.9,48.4z"/>
</g>
</svg>
