<?xml version="1.0" encoding="utf-8"?>
<!-- Generator: Adobe Illustrator 27.0.0, SVG Export Plug-In . SVG Version: 6.00 Build 0)  -->
<svg version="1.1" id="Layer_1" xmlns="http://www.w3.org/2000/svg" xmlns:xlink="http://www.w3.org/1999/xlink" x="0px" y="0px"
	 viewBox="0 0 40 40" style="enable-background:new 0 0 40 40;" xml:space="preserve">
<style type="text/css">
	.st0{fill:#705782;}
</style>
<g>
	<path class="st0" d="M38.4,32.2c0.9,0,1.6-0.7,1.6-1.6V29c0-3.7-3-6.7-6.7-6.7h-1.4c0.2-0.5,0.3-1,0.3-1.6V7.9
		c0-0.9-0.7-1.6-1.6-1.6h-4.7V4.7c0-2.6-2.1-4.7-4.7-4.7s-4.7,2.1-4.7,4.7v1.6h-4.7c-0.9,0-1.6,0.7-1.6,1.6v12.8
		c0,0.4,0.1,0.8,0.2,1.2l-2.5-2.3c-0.9-0.9-2.1-1.3-3.3-1.3c-1.3,0-2.4,0.5-3.3,1.4C0.5,20.6,0,21.8,0,23c0,1.3,0.5,2.4,1.4,3.3
		c0,0,0,0,0,0l8,7.4c2.1,2,4.5,3.6,7.2,4.7c2.7,1.1,5.5,1.6,8.4,1.6h13.5c0.9,0,1.6-0.7,1.6-1.6s-0.7-1.6-1.6-1.6H24.9
		c-5,0-9.8-1.9-13.4-5.4c0,0,0,0,0,0l-8-7.4c-0.3-0.3-0.5-0.7-0.5-1.1c0-0.4,0.2-0.8,0.4-1.1c0.3-0.3,0.7-0.5,1.1-0.5
		c0.4,0,0.8,0.2,1.1,0.4c0,0,0,0,0,0l9,8.2c0.9,0.9,2.1,1.5,3.4,1.5h7.8c0.9,0,1.6-0.7,1.6-1.6s-0.7-1.6-1.6-1.6h-7.8
		c-0.3,0-0.6-0.1-0.9-0.3c0,0,0,0,0,0l-0.3-0.3c-0.2-0.3-0.3-0.6-0.3-1c0-0.9,0.7-1.6,1.6-1.6h15c2,0,3.6,1.6,3.6,3.6v1.6
		C36.9,31.5,37.6,32.2,38.4,32.2L38.4,32.2z M19.7,4.7c0-0.9,0.7-1.6,1.6-1.6s1.6,0.7,1.6,1.6v1.6h-3.1V4.7z M18.3,22.3H15
		c-0.9,0-1.6-0.7-1.6-1.6V9.5h3.1v1.6c0,0.9,0.7,1.6,1.6,1.6s1.6-0.7,1.6-1.6V9.5h3.1v1.6c0,0.9,0.7,1.6,1.6,1.6s1.6-0.7,1.6-1.6
		V9.5h3.1v11.2c0,0.9-0.7,1.6-1.6,1.6H18.3z"/>
</g>
</svg>
