<?xml version="1.0" encoding="utf-8"?>
<!-- Generator: Adobe Illustrator 27.0.0, SVG Export Plug-In . SVG Version: 6.00 Build 0)  -->
<svg version="1.1" id="Layer_1" xmlns="http://www.w3.org/2000/svg" xmlns:xlink="http://www.w3.org/1999/xlink" x="0px" y="0px"
	 viewBox="0 0 78 30" style="enable-background:new 0 0 78 30;" xml:space="preserve">
<style type="text/css">
	.st0{fill:#705782;}
</style>
<path class="st0" d="M76.6,13.8L76.6,13.8c-2.1-2-4.6-3.7-7.6-4L52.6,8.4l-6.5-6.3C45,1.1,43.5,0.5,42,0.5H20.5
	c-1.5,0-2.9,0.6-4,1.6L9.7,8.4H6.3c-2.2,0-4,1.6-4.4,3.7l-1.3,7.5c-0.5,2.7,1.7,5.2,4.4,5.2h5.3c0.7,3,3.4,5.2,6.5,5.2
	c3.2,0,5.8-2.2,6.5-5.2h22.5c0,0,0,0,0,0h5.3c0.7,3,3.4,5.2,6.5,5.2c3.2,0,5.8-2.2,6.5-5.2H74c1.9,0,3.5-1.6,3.5-3.5v-5.4
	C77.5,15.1,77.2,14.3,76.6,13.8z M70.3,13.2c1.7,0.5,2.9,1.7,4.2,2.8v0.3H71c-0.4,0-0.7-0.3-0.7-0.7V13.2z M36.9,3.5H42
	c0.8,0,1.5,0.3,2,0.8l4.2,4.1H36.9V3.5z M30.5,3.5h3.4v4.9h-5.1L30.5,3.5z M18.6,4.3c0.5-0.5,1.3-0.8,2-0.8h0.5l-1.6,3.8
	c-0.3,0.6-0.9,1-1.6,1h-3.7L18.6,4.3z M16.8,27L16.8,27c-2,0-3.7-1.7-3.7-3.7c0-2,1.7-3.7,3.7-3.7c2,0,3.7,1.7,3.7,3.7
	C20.5,25.3,18.8,27,16.8,27z M57.7,27c-2,0-3.7-1.7-3.7-3.7c0,0,0,0,0,0c0-1.1,0.5-2.2,1.3-2.8c0.6-0.5,1.5-0.8,2.3-0.8
	c2,0,3.7,1.7,3.7,3.7C61.4,25.3,59.7,27,57.7,27z M74.5,21.3L74.5,21.3c0,0.3-0.2,0.5-0.5,0.5h-9.8c-0.7-3-3.5-5.2-6.5-5.2
	c-3.1,0-5.8,2.2-6.5,5.2h-7c0,0,0,0,0,0H23.3c-0.7-3-3.5-5.2-6.5-5.2c-3.1,0-5.8,2.2-6.5,5.2H5c-0.9,0-1.6-0.8-1.4-1.7l1.3-7.5
	c0.1-0.7,0.7-1.2,1.4-1.2h11.6c1.9,0,3.6-1.1,4.3-2.9l2.1-5h3l-1.5,4.4c-0.3,0.8-0.2,1.7,0.3,2.4c0.5,0.7,1.3,1.1,2.1,1.1h23.6
	l15.4,1.3v2.9c0,2,1.7,3.7,3.7,3.7h3.5V21.3z"/>
</svg>
