<?xml version="1.0" encoding="utf-8"?>
<!-- Generator: Adobe Illustrator 27.0.0, SVG Export Plug-In . SVG Version: 6.00 Build 0)  -->
<svg version="1.1" id="Layer_1" xmlns="http://www.w3.org/2000/svg" xmlns:xlink="http://www.w3.org/1999/xlink" x="0px" y="0px"
	 viewBox="0 0 50 45" style="enable-background:new 0 0 50 45;" xml:space="preserve">
<style type="text/css">
	.st0{fill:#705782;}
</style>
<g>
	<path class="st0" d="M49.5,30.6v-4.2h-3.9v-7.7h-3.8v-7.7H23.6v7.7h-3.8v7.7h-6.8v-7.7h2.9v-8.6h-3.3V4.4H9.6v5.7H6.7v-10H3.8v10
		H0.5v8.6h2.9v7.7H0.5v9.5h1.4c3,0,5.5,2.1,6.1,5c-2.2-1.8-5.4-1.6-7.5,0.3l2,2.1c1.1-1,2.8-1,3.9,0c2.2,2.1,5.7,2.1,7.9,0
		c1.1-1,2.8-1,3.9,0c2.2,2.1,5.7,2.1,7.9,0c1.1-1,2.8-1,3.9,0c2.2,2.1,5.7,2.1,7.9,0c1.1-1,2.8-1,3.9,0c1.1,1,2.5,1.6,3.9,1.6
		c1.4,0,2.8-0.5,3.9-1.6l-2-2.1c-1,1-2.6,1-3.7,0.2C47.3,39,49.5,35,49.5,30.6z M42.7,21.6v4.8h-4.8v-4.8H42.7z M34.1,14h4.8v4.8
		h-4.8V14z M35,21.6v4.8h-4.8v-4.8H35z M26.4,14h4.8v4.8h-4.8V14z M22.6,21.6h4.8v4.8h-4.8V21.6z M3.4,13h9.6v2.9H3.4V13z
		 M10.1,18.7v7.7H6.2v-7.7H10.1z M40.8,39.7c-1.8-0.4-3.7,0.1-5.1,1.5c-1.1,1-2.8,1-3.9,0c-2.2-2.1-5.7-2.1-7.9,0
		c-1.1,1-2.8,1-3.9,0c-2.2-2.1-5.7-2.1-7.9,0c-0.4,0.3-0.8,0.6-1.2,0.7c-0.1-4.4-3.4-8.1-7.7-8.8v-3.8h43.3v1.3
		C46.6,34.5,44.4,38.1,40.8,39.7z"/>
</g>
</svg>
