<svg width="3816" height="98" viewBox="0 0 3816 98" fill="none" xmlns="http://www.w3.org/2000/svg">
<path d="M9 13.4619L95.2295 78.5439C110.201 91.9024 130.415 91.9024 145.392 78.5439L207.062 23.5228C222.034 10.1644 242.248 10.1644 257.22 23.5228L318.895 78.5439C333.867 91.9024 354.081 91.9024 369.053 78.5439L430.722 23.5228C445.694 10.1644 465.908 10.1644 480.885 23.5228L542.555 78.5439C557.527 91.9024 577.741 91.9024 592.713 78.5439L654.387 23.5228C669.359 10.1644 689.573 10.1644 704.545 23.5228L766.22 78.5439C781.192 91.9024 801.406 91.9024 816.378 78.5439L878.053 23.5228C893.025 10.1644 913.239 10.1644 928.21 23.5228L989.885 78.5439C1004.86 91.9024 1025.07 91.9024 1040.04 78.5439L1101.72 23.5228C1116.69 10.1644 1136.9 10.1644 1151.88 23.5228L1213.55 78.5439C1228.52 91.9024 1248.74 91.9024 1263.71 78.5439L1325.38 23.5228C1340.36 10.1644 1360.57 10.1644 1375.54 23.5228L1437.22 78.5439C1452.19 91.9024 1472.4 91.9024 1487.37 78.5439L1549.05 23.5228C1564.02 10.1644 1584.23 10.1644 1599.21 23.5228L1660.88 78.5439C1675.85 91.9024 1696.07 91.9024 1711.04 78.5439L1772.71 23.5228C1787.69 10.1644 1807.9 10.1644 1822.87 23.5228L1884.55 78.5439C1899.52 91.9024 1919.74 91.9024 1934.71 78.5439L1988.33 31.5107" stroke="#D6CDE0" stroke-width="18" stroke-miterlimit="10" stroke-linecap="round"/>
<path d="M1823.21 22.9918L1885.48 78.5441C1900.45 91.9026 1920.67 91.9026 1935.64 78.5441L1997.31 23.523C2012.28 10.1645 2032.5 10.1645 2047.47 23.523L2109.14 78.5441C2124.12 91.9026 2144.33 91.9026 2159.3 78.5441L2220.97 23.523C2235.94 10.1645 2256.16 10.1645 2271.14 23.523L2332.8 78.5441C2347.78 91.9026 2367.99 91.9026 2382.96 78.5441L2444.64 23.523C2459.61 10.1645 2479.82 10.1645 2494.8 23.523L2556.47 78.5441C2571.44 91.9026 2591.66 91.9026 2606.63 78.5441L2668.3 23.523C2683.27 10.1645 2703.49 10.1645 2718.46 23.523L2780.14 78.5441C2795.11 91.9026 2815.32 91.9026 2830.29 78.5441L2891.97 23.523C2906.94 10.1645 2927.15 10.1645 2942.13 23.523L3003.8 78.5441C3018.77 91.9026 3038.99 91.9026 3053.96 78.5441L3115.63 23.523C3130.6 10.1645 3150.82 10.1645 3165.79 23.523L3227.47 78.5441C3242.44 91.9026 3262.65 91.9026 3277.62 78.5441L3339.3 23.523C3354.27 10.1645 3374.48 10.1645 3389.46 23.523L3451.13 78.5441C3466.1 91.9026 3486.32 91.9026 3501.29 78.5441L3562.96 23.523C3577.94 10.1645 3598.15 10.1645 3613.12 23.523L3674.8 78.5441C3689.77 91.9026 3709.99 91.9026 3724.96 78.5441L3807 9.89893" stroke="#D6CDE0" stroke-width="18" stroke-miterlimit="10" stroke-linecap="round"/>
</svg>
