<svg width="7268" height="144" viewBox="0 0 7268 144" fill="none" xmlns="http://www.w3.org/2000/svg">
<path d="M12 16.5L176.49 116.96C205.05 137.58 243.61 137.58 272.18 116.96L389.82 32.0299C418.38 11.4099 456.94 11.4099 485.5 32.0299L603.15 116.96C631.71 137.58 670.27 137.58 698.83 116.96L816.47 32.0299C845.03 11.4099 883.59 11.4099 912.16 32.0299L1029.8 116.96C1058.36 137.58 1096.92 137.58 1125.48 116.96L1243.13 32.0299C1271.69 11.4099 1310.25 11.4099 1338.81 32.0299L1456.46 116.96C1485.02 137.58 1523.58 137.58 1552.14 116.96L1669.79 32.0299C1698.35 11.4099 1736.91 11.4099 1765.47 32.0299L1883.12 116.96C1911.68 137.58 1950.24 137.58 1978.8 116.96L2096.45 32.0299C2125.01 11.4099 2163.57 11.4099 2192.13 32.0299L2309.78 116.96C2338.34 137.58 2376.9 137.58 2405.46 116.96L2523.11 32.0299C2551.67 11.4099 2590.23 11.4099 2618.79 32.0299L2736.44 116.96C2765 137.58 2803.56 137.58 2832.12 116.96L2949.77 32.0299C2978.33 11.4099 3016.89 11.4099 3045.45 32.0299L3163.1 116.96C3191.66 137.58 3230.22 137.58 3258.78 116.96L3376.43 32.0299C3404.99 11.4099 3443.55 11.4099 3472.11 32.0299L3589.77 116.96C3618.33 137.58 3656.89 137.58 3685.45 116.96L3787.74 44.3599" stroke="#D6CDE0" stroke-width="22" stroke-miterlimit="10" stroke-linecap="round"/>
<path d="M3472.75 31.21L3591.54 116.96C3620.1 137.58 3658.66 137.58 3687.23 116.96L3804.87 32.03C3833.43 11.41 3871.99 11.41 3900.55 32.03L4018.2 116.96C4046.76 137.58 4085.32 137.58 4113.88 116.96L4231.52 32.03C4260.08 11.41 4298.64 11.41 4327.21 32.03L4444.85 116.96C4473.41 137.58 4511.97 137.58 4540.53 116.96L4658.18 32.03C4686.74 11.41 4725.3 11.41 4753.86 32.03L4871.51 116.96C4900.07 137.58 4938.63 137.58 4967.19 116.96L5084.84 32.03C5113.4 11.41 5151.96 11.41 5180.52 32.03L5298.17 116.96C5326.73 137.58 5365.29 137.58 5393.85 116.96L5511.5 32.03C5540.06 11.41 5578.62 11.41 5607.18 32.03L5724.83 116.96C5753.39 137.58 5791.95 137.58 5820.51 116.96L5938.16 32.03C5966.72 11.41 6005.28 11.41 6033.84 32.03L6151.49 116.96C6180.05 137.58 6218.61 137.58 6247.17 116.96L6364.82 32.03C6393.38 11.41 6431.94 11.41 6460.5 32.03L6578.15 116.96C6606.71 137.58 6645.27 137.58 6673.83 116.96L6791.48 32.03C6820.04 11.41 6858.6 11.41 6887.16 32.03L7004.82 116.96C7033.38 137.58 7071.94 137.58 7100.5 116.96L7257 11" stroke="#D6CDE0" stroke-width="22" stroke-miterlimit="10" stroke-linecap="round"/>
</svg>
