<svg width="1302" height="1174" viewBox="0 0 1302 1174" fill="none" xmlns="http://www.w3.org/2000/svg">
<g opacity="0.33" clip-path="url(#clip0_317_999)">
<path fill-rule="evenodd" clip-rule="evenodd" d="M1037.39 0L1045.4 17.4923L1056.91 0H1067.64L1048.63 28.8842L1043.92 36.037L1040.39 28.3482L1027.42 0H1037.39Z" fill="white"/>
<path fill-rule="evenodd" clip-rule="evenodd" d="M290.116 344.223L446.63 626.487L447.149 627.422L447.117 628.455L437.39 944.388L656.966 1174H644.796L429.252 948.598L428.085 947.38L428.128 945.762L437.887 629.254L281.881 347.936L290.116 344.223Z" fill="white"/>
<path fill-rule="evenodd" clip-rule="evenodd" d="M1302 438.944L957.155 560.533L953.793 552.785L1302 430.008V438.944Z" fill="white"/>
<path fill-rule="evenodd" clip-rule="evenodd" d="M640.603 794.315L945.072 913.389L941.43 921.01L636.95 801.926L640.603 794.315Z" fill="white"/>
<path fill-rule="evenodd" clip-rule="evenodd" d="M1051.71 871.301L860.741 958.48L835.333 1167.93L835.235 1168.79L834.738 1169.56L831.896 1174H821.272L826.265 1166.18L851.846 955.351L852.117 953.1L854.354 952.077L1047.56 863.875L1051.71 871.301Z" fill="white"/>
<path d="M929.692 732.564L921.285 735.951L998.612 891.968L1007.02 888.581L929.692 732.564Z" fill="white"/>
<path fill-rule="evenodd" clip-rule="evenodd" d="M959.262 907.572L1042.72 978.964L1044.3 980.308L1044.14 982.257L1038.04 1061.91L1037.93 1063.23L1037 1064.26L1014.02 1089.75L1004.52 1171.19L1005.98 1174H995.813L995.629 1173.65L995.089 1172.6L995.219 1171.48L1005 1087.68L1005.14 1086.44L1006.02 1085.48L1028.93 1060.04L1034.8 983.641L952.918 913.594L959.262 907.572Z" fill="white"/>
<path fill-rule="evenodd" clip-rule="evenodd" d="M923.792 337.07L951.005 412.818L988.421 416.901L990.139 417.086L991.317 418.275L1084.24 511.993L1077.39 517.528L985.621 424.989L946.985 420.76L944.056 420.438L943.137 417.895L915.016 339.613L923.792 337.07Z" fill="white"/>
<path d="M538.492 399.536L359.092 478.62L363.158 486.119L542.558 407.035L538.492 399.536Z" fill="white"/>
<path fill-rule="evenodd" clip-rule="evenodd" d="M377.895 520.588L229.94 445.62L228.676 444.976L228.049 443.807L176.076 347.887L184.387 344.242L235.722 438.993L382.412 513.328L377.895 520.588Z" fill="white"/>
<path fill-rule="evenodd" clip-rule="evenodd" d="M0 404.525L120.039 453.796L223.542 451.613L229.789 451.486L228.081 456.904L189.812 577.947L204.975 684.031L205.342 686.633L202.878 688.056L174.141 704.593L169.191 697.596L195.464 682.472L180.55 578.122L180.431 577.255L180.68 576.466L217.479 460.052L119.174 462.128L118.137 462.147L117.175 461.747L0 413.646V404.525Z" fill="white"/>
<path fill-rule="evenodd" clip-rule="evenodd" d="M197.475 551.041L206.023 576.232L245.082 591.999L246.497 592.574L247.243 593.792L288.819 661.598L280.736 665.603L239.905 599.016L200.36 583.053L198.447 582.274L197.831 580.461L188.667 553.448L197.475 551.041Z" fill="white"/>
<path fill-rule="evenodd" clip-rule="evenodd" d="M203.721 681.536L211.957 689.936L423.427 599.756L427.372 607.27L212.767 698.785L209.644 700.12L207.353 697.781L196.826 687.032L203.721 681.536Z" fill="white"/>
<path fill-rule="evenodd" clip-rule="evenodd" d="M93.3551 779.24L89.6806 805.707L89.3563 808.036L86.9787 808.991L20.1776 835.878L9.0891 859.87L43.7271 1174H34.4651L0 861.371V857.921L0.12969 857.629L12.3638 831.171L13.0663 829.651L14.7414 828.968L80.84 802.365L84.1795 778.236L93.3551 779.24Z" fill="white"/>
<path fill-rule="evenodd" clip-rule="evenodd" d="M88.2216 801.868L109.653 823.336L197.194 862.394L198.717 863.076L199.387 864.489L290.181 1056.34L281.697 1059.59L191.574 869.157L104.757 830.43L103.957 830.07L103.374 829.485L81.3589 807.432L88.2216 801.868Z" fill="white"/>
<path d="M246.172 974.209L29.1392 1102.12L34.1889 1109.09L251.222 981.175L246.172 974.209Z" fill="white"/>
<path fill-rule="evenodd" clip-rule="evenodd" d="M642.927 540.867L748.699 745.951L740.313 749.43L634.551 544.356L642.927 540.867Z" fill="white"/>
<path d="M678.95 618.209L438.059 721.859L442.038 729.379L682.93 625.729L678.95 618.209Z" fill="white"/>
<path fill-rule="evenodd" clip-rule="evenodd" d="M477.702 988.309L571.198 983.933L620.75 968.673L624.154 967.63L626.111 970.368L676.247 1040.93L676.398 1041.16L676.528 1041.41L719.941 1124.1L745.998 1174H735.807L711.598 1127.64L668.325 1045.21L620.296 977.609L573.575 991.993L572.981 992.168L572.322 992.207L478.167 996.612L477.702 988.309Z" fill="white"/>
<path fill-rule="evenodd" clip-rule="evenodd" d="M281.254 351.814L232.653 309.365L229.605 306.704L232.307 303.742L416.088 102.917L420.811 68.8289L429.976 69.8327L425.091 105.119L424.929 106.308L424.064 107.253L242.12 306.061L287.684 345.85L281.254 351.814Z" fill="white"/>
<path fill-rule="evenodd" clip-rule="evenodd" d="M499.944 0L468.213 73.5845L466.927 76.5665L463.425 76.2157L340.35 64.0149L131.668 129.589L129.42 130.291L127.496 129.063L0 48.1111V37.9373L130.868 121.033L338.307 55.8584L339.301 55.5465L340.306 55.644L460.907 67.6011L490.055 0H499.944Z" fill="white"/>
<path d="M45.4352 71.3918L36.2319 71.6569L46.038 348.4L55.2413 348.135L45.4352 71.3918Z" fill="white"/>
<path fill-rule="evenodd" clip-rule="evenodd" d="M707.102 0L755.746 229.261L798.403 335.852L789.736 338.649L746.938 231.697L746.798 231.337L746.744 231.083L697.71 0H707.102Z" fill="white"/>
<path fill-rule="evenodd" clip-rule="evenodd" d="M421.719 105.188L651.443 194.198L888.656 201.02L889.164 201.03L889.618 201.127L1237.36 278.093L1302 265.142V273.649L1238.29 286.415L1237.23 286.62L1236.19 286.396L887.857 209.303L650.243 202.472L649.335 202.452L648.568 202.15L418.066 112.837L421.719 105.188Z" fill="white"/>
<path fill-rule="evenodd" clip-rule="evenodd" d="M1193.31 0L1288.81 275.365L1289.48 277.314L1288.2 278.98L1162.25 442.16L1154.67 437.414L1279.33 275.901L1183.64 0H1193.31Z" fill="white"/>
<path fill-rule="evenodd" clip-rule="evenodd" d="M1249.43 163.745L1196.85 261.877L1196.78 262.014L1196.65 262.199L1129.39 363.635L1121.49 359.366L1188.62 258.126L1241.12 160.13L1249.43 163.745Z" fill="white"/>
<path fill-rule="evenodd" clip-rule="evenodd" d="M495.913 11.2652L518.533 144.119L509.4 145.356L486.78 12.4931L495.913 11.2652Z" fill="white"/>
<path fill-rule="evenodd" clip-rule="evenodd" d="M511.594 116.882L548.275 117.437H548.621L548.837 117.466L587.755 122.407L731.7 124.6L732.067 124.609L732.272 124.639L857.001 140.62L857.79 140.728L858.482 141.049L901.399 161.212L1207.08 223.93L1205.06 232.038L898.751 169.193L898.113 169.066L897.627 168.832L854.905 148.757L731.181 132.902L587.257 130.7L586.912 130.69L586.706 130.671L547.788 125.73L511.454 125.184L511.594 116.882Z" fill="white"/>
<path fill-rule="evenodd" clip-rule="evenodd" d="M903.052 164.866L894.482 202.355L885.458 200.689L894.017 163.2L903.052 164.866Z" fill="white"/>
<path fill-rule="evenodd" clip-rule="evenodd" d="M1048.56 26.4869L1002.09 230.469L993.068 228.813L1039.53 24.8303L1048.56 26.4869Z" fill="white"/>
<path fill-rule="evenodd" clip-rule="evenodd" d="M1146 0L1168.5 35.7349L1169.38 37.1382L1168.98 38.7072L1115.18 254.257L1106.19 252.435L1159.6 38.444L1135.4 0H1146Z" fill="white"/>
<path fill-rule="evenodd" clip-rule="evenodd" d="M518.673 148.689L324.311 302.456L270.112 352.974L263.498 347.214L317.913 296.492L318.183 296.248L512.61 142.443L518.673 148.689Z" fill="white"/>
<path d="M596.887 174.348H587.646V342.488H596.887V174.348Z" fill="white"/>
<path d="M944.144 218.113L908.343 338.589L917.258 340.743L953.059 220.267L944.144 218.113Z" fill="white"/>
</g>
<defs>
<clipPath id="clip0_317_999">
<rect width="1302" height="1174" fill="white"/>
</clipPath>
</defs>
</svg>
